<svg width="48" height="48" viewBox="0 0 48 48" fill="none" xmlns="http://www.w3.org/2000/svg">
<circle cx="24" cy="24" r="24" fill="#F7F7F7"/>
<path fill-rule="evenodd" clip-rule="evenodd" d="M29.9703 18.6569C29.5798 18.2663 28.9466 18.2663 28.5561 18.6569L24.3135 22.8995L20.0708 18.6569C19.6803 18.2663 19.0471 18.2663 18.6566 18.6569C18.2661 19.0474 18.2661 19.6805 18.6566 20.0711L22.8993 24.3137L18.6566 28.5563C18.2661 28.9469 18.2661 29.58 18.6566 29.9706C19.0471 30.3611 19.6803 30.3611 20.0708 29.9706L24.3135 25.7279L28.5561 29.9706C28.9466 30.3611 29.5798 30.3611 29.9703 29.9706C30.3609 29.58 30.3609 28.9469 29.9703 28.5563L25.7277 24.3137L29.9703 20.0711C30.3609 19.6805 30.3609 19.0474 29.9703 18.6569Z" fill="#CED1D6"/>
</svg>
