<svg width="15" height="21" viewBox="0 0 15 21" fill="none" xmlns="http://www.w3.org/2000/svg">
<path d="M7.04276 9.9837C6.27325 9.9837 5.50358 9.69076 4.91786 9.10489C3.74613 7.93331 3.74613 6.02684 4.91786 4.85511C5.48534 4.28748 6.24001 3.97491 7.04276 3.97491C7.84551 3.97491 8.60002 4.28764 9.16765 4.85511C10.3394 6.02684 10.3394 7.93331 9.16765 9.10489C8.58178 9.69076 7.81227 9.9837 7.04276 9.9837ZM7.04276 5.16443C6.57762 5.16443 6.11248 5.34143 5.75833 5.69557C5.05003 6.40387 5.05003 7.55629 5.75833 8.26458C6.10135 8.6076 6.55752 8.7965 7.04276 8.7965C7.52799 8.7965 7.98417 8.6076 8.32719 8.26458C9.03548 7.55629 9.03548 6.40387 8.32719 5.69557C7.97304 5.34143 7.5079 5.16443 7.04276 5.16443Z" fill="#CD0000"/>
<path d="M7.04974 20.2615L6.59017 19.7217C6.32119 19.4055 0 11.9237 0 7.04279C0 3.15936 3.15936 0 7.04279 0C10.9262 0 14.0856 3.15936 14.0856 7.04279C14.0856 11.6837 7.76994 19.389 7.50112 19.7147L7.04974 20.2615ZM7.04279 1.18859C3.81479 1.18859 1.18859 3.81479 1.18859 7.04279C1.18859 8.85697 2.27036 11.4824 4.31703 14.6354C5.37917 16.2717 6.44872 17.6574 7.03629 18.3907C7.62479 17.6373 8.70455 16.206 9.77333 14.5387C11.8169 11.351 12.897 8.75881 12.897 7.04279C12.897 3.81479 10.2708 1.18859 7.04279 1.18859Z" fill="#CD0000"/>
</svg>
