<svg width="59" height="57" viewBox="0 0 59 57" fill="none" xmlns="http://www.w3.org/2000/svg">
<path d="M55.616 28.3073L50.903 32.7995L46.1899 28.3073L50.903 23.815L55.616 28.3073Z" fill="#CD0000"/>
<path d="M50.9021 18.1461L41.4244 27.0949H32.0327L41.4588 18.1461H50.9021Z" fill="#CD0000"/>
<path d="M28.0931 9.70833C43.1296 -0.833333 57.0001 22 57.0001 22V52C57.0001 52 47.1099 36.2917 30.3043 43.1667C13.4988 50.0417 2.00391 28.5 2.00391 28.5V13.375V3.75C2.00391 3.75 13.0565 20.25 28.0931 9.70833Z" fill="#CD0000"/>
<path d="M39.6011 7.34326V16.3277L30.2095 25.33V16.3634L39.6011 7.34326Z" fill="#CD0000"/>
<path d="M33.5291 49.5384L28.8161 54.0306L24.103 49.5384L28.8161 45.0461L33.5291 49.5384Z" fill="#CD0000"/>
<path d="M33.408 7.32558L28.695 11.8178L23.9819 7.32558L28.695 2.83334L33.408 7.32558Z" fill="#CD0000"/>
<path d="M27.3878 31.5516V40.5361L17.9961 49.5384V40.5895L27.3878 31.5516Z" fill="#CD0000"/>
<path d="M25.565 29.8046L16.139 38.7535H6.71289L16.1734 29.8046H25.565Z" fill="#CD0000"/>
<path d="M11.4089 28.3072L6.71304 32.7994L2 28.3072L6.67863 23.8328L6.71304 23.7971L11.4089 28.3072Z" fill="#CD0000"/>
<path d="M31.2349 25.3301V16.3634L40.968 7.34329V16.3278L31.2349 25.3301Z" stroke="white" stroke-width="1.66528" stroke-miterlimit="10"/>
<path d="M40.968 49.5383V40.5895L31.2349 31.5516V40.536L40.968 49.5383Z" stroke="white" stroke-width="1.66528" stroke-miterlimit="10"/>
<path d="M33.1245 27.0949H42.8577L52.68 18.1461H42.8934L33.1245 27.0949Z" stroke="white" stroke-width="1.66528" stroke-miterlimit="10"/>
<path d="M33.1245 29.8046H42.8577L52.68 38.7535H42.8934L33.1245 29.8046Z" stroke="white" stroke-width="1.66528" stroke-miterlimit="10"/>
<path d="M28.3113 25.3301V16.3634L18.5781 7.34329V16.3278L28.3113 25.3301Z" stroke="white" stroke-width="1.66528" stroke-miterlimit="10"/>
<path d="M18.5781 49.5383V40.5895L28.3113 31.5516V40.536L18.5781 49.5383Z" stroke="white" stroke-width="1.66528" stroke-miterlimit="10"/>
<path d="M26.422 27.0949H16.6888L6.88428 18.1461H16.6531L26.422 27.0949Z" stroke="white" stroke-width="1.66528" stroke-miterlimit="10"/>
<path d="M26.422 29.8046H16.6888L6.88428 38.7535H16.6531L26.422 29.8046Z" stroke="white" stroke-width="1.66528" stroke-miterlimit="10"/>
<path d="M32.6436 28.3606L29.7914 30.9811L26.9214 28.3606L29.7914 25.7402L32.6436 28.3606Z" stroke="white" stroke-width="1.66528" stroke-miterlimit="10"/>
<path d="M57.5652 28.3073L52.6808 32.7995L47.7964 28.3073L52.6808 23.815L57.5652 28.3073Z" stroke="white" stroke-width="1.66528" stroke-miterlimit="10"/>
<path d="M11.751 28.3072L6.88442 32.7995L2 28.3072L6.84877 23.8328L6.88442 23.7972L11.751 28.3072Z" stroke="white" stroke-width="1.66528" stroke-miterlimit="10"/>
<path d="M34.6756 49.5384L29.7912 54.0306L24.9067 49.5384L29.7912 45.0462L34.6756 49.5384Z" stroke="white" stroke-width="1.66528" stroke-miterlimit="10"/>
<path d="M34.5506 7.32557L29.6662 11.8178L24.7817 7.32557L29.6662 2.83333L34.5506 7.32557Z" stroke="white" stroke-width="1.66528" stroke-miterlimit="10"/>
</svg>
