<svg width="19" height="19" viewBox="0 0 19 19" fill="none" xmlns="http://www.w3.org/2000/svg">
<path d="M7.25 0C3.25781 0 0 3.25781 0 7.25C0 11.2422 3.25781 14.5 7.25 14.5C8.88672 14.5 10.3945 13.9453 11.6094 13.0234L16.293 17.707C16.543 17.9688 16.918 18.0742 17.2656 17.9805C17.6172 17.8906 17.8906 17.6172 17.9805 17.2656C18.0742 16.918 17.9688 16.543 17.707 16.293L13.0273 11.6094C13.9453 10.3945 14.5 8.88672 14.5 7.25C14.5 3.25781 11.2422 0 7.25 0ZM7.25 2C10.1602 2 12.5 4.33984 12.5 7.25C12.5 8.64844 11.957 9.91016 11.0742 10.8477C10.9883 10.9102 10.9141 10.9883 10.8516 11.0703C9.91016 11.957 8.64844 12.5 7.25 12.5C4.33984 12.5 2 10.1602 2 7.25C2 4.33984 4.33984 2 7.25 2Z" fill="#CED1D6"/>
</svg>
